<svg width="16" height="16" viewBox="0 0 16 16" fill="none" xmlns="http://www.w3.org/2000/svg">
<path fill-rule="evenodd" clip-rule="evenodd" d="M2.9803 8.66414e-06C2.98695 1.28365e-05 2.99351 1.69492e-05 2.99999 1.69492e-05L12.6719 1.5161e-05C13.1436 -1.69659e-05 13.5517 -4.46811e-05 13.8558 0.0431671C14.1506 0.085069 14.562 0.195047 14.7377 0.610837C14.9133 1.02663 14.7054 1.39824 14.53 1.63886C14.349 1.88699 14.0645 2.17956 13.7356 2.51778L11.5056 4.81154C11.1756 5.15092 10.9635 5.37056 10.8278 5.55313C10.7008 5.72408 10.6864 5.80401 10.6864 5.85716C10.6864 5.91031 10.7008 5.99024 10.8278 6.16119C10.9635 6.34376 11.1756 6.5634 11.5056 6.90278L13.7356 9.19652C14.0645 9.53474 14.349 9.82732 14.53 10.0755C14.7054 10.3161 14.9133 10.6877 14.7377 11.1035C14.562 11.5193 14.1506 11.6292 13.8558 11.6712C13.5517 11.7144 13.1436 11.7143 12.6719 11.7143L2.99999 11.7143V15.5C2.99999 15.7762 2.77613 16 2.49999 16C2.22384 16 1.99999 15.7762 1.99999 15.5V1.00002C1.99999 0.993544 1.99998 0.986977 1.99998 0.980325C1.99992 0.880388 1.99984 0.761403 2.0136 0.659075C2.03021 0.535552 2.07466 0.364683 2.21966 0.219687C2.36465 0.0746907 2.53552 0.0302357 2.65904 0.0136285C2.76137 -0.000129201 2.88036 -5.4338e-05 2.9803 8.66414e-06Z" fill="white"/>
</svg>
