<svg width="16" height="16" viewBox="0 0 16 16" fill="none" xmlns="http://www.w3.org/2000/svg">
<path d="M6.38599 3.29526C7.06995 1.59016 7.41193 0.73761 8 0.73761C8.58807 0.73761 8.93005 1.59016 9.61401 3.29526L9.64586 3.37466C10.0323 4.33796 10.2255 4.81961 10.6192 5.11236C11.013 5.40512 11.5299 5.45141 12.5636 5.54399L12.7505 5.56073C14.4424 5.71225 15.2884 5.78801 15.4694 6.32622C15.6504 6.86443 15.0222 7.436 13.7657 8.57912L13.3463 8.96064C12.7103 9.53931 12.3923 9.82865 12.244 10.2079C12.2164 10.2786 12.1934 10.3511 12.1752 10.4248C12.0778 10.8202 12.1709 11.2399 12.3572 12.0794L12.4151 12.3407C12.7574 13.8835 12.9286 14.6549 12.6298 14.9876C12.5181 15.1119 12.373 15.2015 12.2117 15.2454C11.7803 15.3632 11.1677 14.864 9.94266 13.8658C9.13821 13.2103 8.73599 12.8825 8.27419 12.8088C8.09255 12.7798 7.90745 12.7798 7.72581 12.8088C7.26401 12.8825 6.86179 13.2103 6.05734 13.8658C4.83225 14.864 4.2197 15.3632 3.78825 15.2454C3.62703 15.2015 3.4819 15.1119 3.37024 14.9876C3.07141 14.6549 3.24256 13.8835 3.58486 12.3407L3.64283 12.0794C3.82909 11.2399 3.92222 10.8202 3.82479 10.4248C3.80661 10.3511 3.78362 10.2786 3.75597 10.2079C3.60775 9.82865 3.28972 9.53931 2.65367 8.96064L2.23432 8.57913C0.97785 7.436 0.349612 6.86443 0.530625 6.32622C0.711637 5.78801 1.55759 5.71225 3.24948 5.56073L3.43637 5.54399C4.47014 5.45141 4.98703 5.40512 5.38078 5.11236C5.77454 4.81961 5.96774 4.33796 6.35414 3.37466L6.38599 3.29526Z" fill="#F1582B"/>
</svg>
